<?xml version="1.0" encoding="UTF-8" standalone="no"?>
<svg
   width="8.5in"
   height="11in"
   viewBox="0 0 8.5 11"
   version="1.1"
   xmlns="http://www.w3.org/2000/svg"
   xmlns:svg="http://www.w3.org/2000/svg" >
  <rect style="fill:#fff;" id="zxx-AA" width="8.5" height="0.077362746" x="0" y="0" />
  <rect style="fill:#fff;" id="zxx-QM" width="8.5" height="0.28540206" x="0" y="0.077362746" />
  <rect style="fill:#fff;" id="zxx-QN" width="8.5" height="0.28540194" x="0" y="0.36276492" />
  <rect style="fill:#fff;" id="zxx-QO" width="8.5" height="0.28540182" x="0" y="0.64816707" />
  <rect style="fill:#fff;" id="zxx-QP" width="8.5" height="0.28540206" x="0" y="0.93356895" />
  <rect style="fill:#fff;" id="zxx-QQ" width="8.5" height="0.28540161" x="0" y="1.2189714" />
  <rect style="fill:#fff;" id="zxx-QR" width="8.5" height="0.28540164" x="0" y="1.5043734" />
  <rect style="fill:#fff;" id="zxx-QS" width="8.5" height="0.28540206" x="0" y="1.789775" />
  <rect style="fill:#fff;" id="zxx-QT" width="8.5" height="0.28540206" x="0" y="2.075177" />
  <rect style="fill:#fff;" id="zxx-QU" width="8.5" height="0.28540146" x="0" y="2.3605797" />
  <rect style="fill:#fff;" id="zxx-QV" width="8.5" height="0.28540206" x="0" y="2.6459813" />
  <rect style="fill:#fff;" id="zxx-QW" width="8.5" height="0.28540206" x="0" y="2.9313834" />
  <rect style="fill:#fff;" id="zxx-QX" width="8.5" height="0.28540206" x="0" y="3.2167852" />
  <rect style="fill:#fff;" id="zxx-QY" width="8.5" height="0.28540105" x="0" y="3.5021882" />
  <rect style="fill:#fff;" id="zxx-QZ" width="8.5" height="0.28540099" x="0" y="3.7875905" />
  <rect style="fill:#fff;" id="zxx-XA" width="8.5" height="0.28540206" x="0" y="4.0729914" />
  <rect style="fill:#fff;" id="zxx-XB" width="8.5" height="0.28540054" x="0" y="4.3583951" />
  <rect style="fill:#fff;" id="zxx-XC" width="8.5" height="0.28540206" x="0" y="4.6437955" />
  <rect style="fill:#fff;" id="zxx-XD" width="8.5" height="0.28540081" x="0" y="4.9291987" />
  <rect style="fill:#fff;" id="zxx-XE" width="8.5" height="0.28540048" x="0" y="5.214601" />
  <rect style="fill:#fff;" id="zxx-XF" width="8.5" height="0.28540063" x="0" y="5.5000029" />
  <rect style="fill:#fff;" id="zxx-XG" width="8.5" height="0.28540206" x="0" y="5.7854037" />
  <rect style="fill:#fff;" id="zxx-XH" width="8.5" height="0.28540206" x="0" y="6.070806" />
  <rect style="fill:#fff;" id="zxx-XI" width="8.5" height="0.28540206" x="0" y="6.3562078" />
  <rect style="fill:#fff;" id="zxx-XJ" width="8.5" height="0.28540206" x="0" y="6.6416101" />
  <rect style="fill:#fff;" id="zxx-XK" width="8.5" height="0.28540206" x="0" y="6.927012" />
  <rect style="fill:#fff;" id="zxx-XL" width="8.5" height="0.28540003" x="0" y="7.2124162" />
  <rect style="fill:#fff;" id="zxx-XM" width="8.5" height="0.28539971" x="0" y="7.4978185" />
  <rect style="fill:#fff;" id="zxx-XN" width="8.5" height="0.28540206" x="0" y="7.7832184" />
  <rect style="fill:#fff;" id="zxx-XO" width="8.5" height="0.28540206" x="0" y="8.0686197" />
  <rect style="fill:#fff;" id="zxx-XP" width="8.5" height="0.28539965" x="0" y="8.3540239" />
  <rect style="fill:#fff;" id="zxx-XQ" width="8.5" height="0.28540206" x="0" y="8.6394243" />
  <rect style="fill:#fff;" id="zxx-XR" width="8.5" height="0.28539896" x="0" y="8.9248295" />
  <rect style="fill:#fff;" id="zxx-XS" width="8.5" height="0.28539959" x="0" y="9.2102308" />
  <rect style="fill:#fff;" id="zxx-XT" width="8.5" height="0.28540206" x="0" y="9.4956312" />
  <rect style="fill:#fff;" id="zxx-XU" width="8.5" height="0.28540206" x="0" y="9.7810326" />
  <rect style="fill:#fff;" id="zxx-XV" width="8.5" height="0.28540206" x="0" y="10.066435" />
  <rect style="fill:#fff;" id="zxx-XW" width="8.5" height="0.28539824" x="0" y="10.35184" />
  <rect style="fill:#fff;" id="zxx-XX" width="8.5" height="0.28539887" x="0" y="10.637242" />
  <rect style="fill:#fff;" id="zxx-ZZ" width="8.5" height="0.07735913" x="0" y="10.92264087" />
  <path d="M 0,0.077362722 H 8.5" id="zxx-900" desc="5.5−(19×0.013837×20.626)" />
  <path d="M 0,0.362764684 H 8.5" id="zxx-901" desc="5.5−(18×0.013837×20.626)" />
  <path d="M 0,0.648166646 H 8.5" id="zxx-902" desc="5.5−(17×0.013837×20.626)" />
  <path d="M 0,0.933568608 H 8.5" id="zxx-903" desc="5.5−(16×0.013837×20.626)" />
  <path d="M 0,1.21897057 H 8.5" id="zxx-904" desc="5.5−(15×0.013837×20.626)" />
  <path style="stroke:#bff;stroke-width:0.01;" d="M 0,1.504372532 H 8.5" id="zxx-905" desc="5.5−(14×0.013837×20.626)" />
  <path style="stroke:#bff;stroke-width:0.01;" d="M 0,1.789774494 H 8.5" id="zxx-906" desc="5.5−(13×0.013837×20.626)" />
  <path style="stroke:#bff;stroke-width:0.01;" d="M 0,2.075176456 H 8.5" id="zxx-907" desc="5.5−(12×0.013837×20.626)" />
  <path style="stroke:#bff;stroke-width:0.01;" d="M 0,2.360578418 H 8.5" id="zxx-908" desc="5.5−(11×0.013837×20.626)" />
  <path style="stroke:#bff;stroke-width:0.01;" d="M 0,2.64598038 H 8.5" id="zxx-909" desc="5.5−(10×0.013837×20.626)" />
  <path style="stroke:#bff;stroke-width:0.01;" d="M 0,2.931382342 H 8.5" id="zxx-910" desc="5.5−(9×0.013837×20.626)" />
  <path style="stroke:#bff;stroke-width:0.01;" d="M 0,3.216784304 H 8.5" id="zxx-911" desc="5.5−(8×0.013837×20.626)" />
  <path style="stroke:#bff;stroke-width:0.01;" d="M 0,3.502186266 H 8.5" id="zxx-912" desc="5.5−(7×0.013837×20.626)" />
  <path style="stroke:#bff;stroke-width:0.01;" d="M 0,3.787588228 H 8.5" id="zxx-913" desc="5.5−(6×0.013837×20.626)" />
  <path style="stroke:#bff;stroke-width:0.01;" d="M 0,4.07299019 H 8.5" id="zxx-914" desc="5.5−(5×0.013837×20.626)" />
  <path style="stroke:#bff;stroke-width:0.01;" d="M 0,4.358392152 H 8.5" id="zxx-915" desc="5.5−(4×0.013837×20.626)" />
  <path style="stroke:#bff;stroke-width:0.01;" d="M 0,4.643794114 H 8.5" id="zxx-916" desc="5.5−(3×0.013837×20.626)" />
  <path style="stroke:#bff;stroke-width:0.01;" d="M 0,4.929196076 H 8.5" id="zxx-917" desc="5.5−(2×0.013837×20.626)" />
  <path style="stroke:#bff;stroke-width:0.01;" d="M 0,5.214598038 H 8.5" id="zxx-918" desc="5.5−(1×0.013837×20.626)" />
  <path style="stroke:#bff;stroke-width:0.01;" d="M 0,5.5 H 8.5" id="zxx-919" />
  <path style="stroke:#bff;stroke-width:0.01;" d="M 0,5.785401962 H 8.5" id="zxx-920" desc="5.5+(1×0.013837×20.626)" />
  <path style="stroke:#bff;stroke-width:0.01;" d="M 0,6.070803924 H 8.5" id="zxx-921" desc="5.5+(2×0.013837×20.626)" />
  <path style="stroke:#bff;stroke-width:0.01;" d="M 0,6.356205886 H 8.5" id="zxx-922" desc="5.5+(3×0.013837×20.626)" />
  <path style="stroke:#bff;stroke-width:0.01;" d="M 0,6.641607848 H 8.5" id="zxx-923" desc="5.5+(4×0.013837×20.626)" />
  <path style="stroke:#bff;stroke-width:0.01;" d="M 0,6.92700981 H 8.5" id="zxx-924" desc="5.5+(5×0.013837×20.626)" />
  <path style="stroke:#bff;stroke-width:0.01;" d="M 0,7.212411772 H 8.5" id="zxx-925" desc="5.5+(6×0.013837×20.626)" />
  <path style="stroke:#bff;stroke-width:0.01;" d="M 0,7.497813734 H 8.5" id="zxx-926" desc="5.5+(7×0.013837×20.626)" />
  <path style="stroke:#bff;stroke-width:0.01;" d="M 0,7.783215696 H 8.5" id="zxx-927" desc="5.5+(8×0.013837×20.626)" />
  <path style="stroke:#bff;stroke-width:0.01;" d="M 0,8.068617658 H 8.5" id="zxx-928" desc="5.5+(9×0.013837×20.626)" />
  <path style="stroke:#bff;stroke-width:0.01;" d="M 0,8.35401962 H 8.5" id="zxx-929" desc="5.5+(10×0.013837×20.626)" />
  <path style="stroke:#bff;stroke-width:0.01;" d="M 0,8.639421582 H 8.5" id="zxx-930" desc="5.5+(11×0.013837×20.626)" />
  <path style="stroke:#bff;stroke-width:0.01;" d="M 0,8.924823544 H 8.5" id="zxx-931" desc="5.5+(12×0.013837×20.626)" />
  <path style="stroke:#bff;stroke-width:0.01;" d="M 0,9.210225506 H 8.5" id="zxx-932" desc="5.5+(13×0.013837×20.626)" />
  <path style="stroke:#bff;stroke-width:0.01;" d="M 0,9.495627468 H 8.5" id="zxx-933" desc="5.5+(14×0.013837×20.626)" />
  <path style="stroke:#bff;stroke-width:0.01;" d="M 0,9.78102943 H 8.5" id="zxx-934" desc="5.5+(15×0.013837×20.626)" />
  <path style="stroke:#bff;stroke-width:0.01;" d="M 0,10.066431392 H 8.5" id="zxx-935" desc="5.5+(16×0.013837×20.626)" />
  <path style="stroke:#bff;stroke-width:0.01;" d="M 0,10.351833354 H 8.5" id="zxx-936" desc="5.5+(17×0.013837×20.626)" />
  <path style="stroke:#bff;stroke-width:0.01;" d="M 0,10.637235316 H 8.5" id="zxx-937" desc="5.5+(18×0.013837×20.626)" />
  <path style="stroke:#fcc;stroke-width:0.01;" d="M 7.8085,0 V 11" id="zxx-938" />
  <path style="stroke:#fcc;stroke-width:0.01;" d="M 0.6915,0 V 11" id="zxx-939" />
  <path d="M 0,10.922637278 H 8.5" id="zxx-940" desc="5.5+(19×0.013837×20.626)" />
  <circle
     style="fill:#000"
     id="zxx-Qaba"
     cx="8.15625"
     cy="1.25"
     r="0.1563"
     desc="r:=0.1563=5/16/2 cy:=1.25=11/2-4.25 cx:=7.84375=8.5-1/2+5/16/2" />
  <circle
     style="fill:#000"
     id="zxx-Qabb"
     cx="8.15625"
     cy="5.5"
     r="0.1563"
     desc="r:=0.1563=5/16/2 cy:=5.5=11/2 cx:=7.84375=8.5-1/2+5/16/2" />
  <circle
     style="fill:#000"
     id="zxx-Qabc"
     cx="8.15625"
     cy="9.75"
     r="0.1563"
     desc="r:=0.1563=5/16/2 cy:=9.75=11/2+4.25 cx:=7.84375=8.5-1/2+5/16/2" />
</svg>
