<?xml version="1.0" encoding="UTF-8"?>

<svg
    height="100%"
    viewBox="0 0 367 239"
    width="100%"
    style="background-image: linear-gradient(45deg, #ccc 25%, transparent 25%), linear-gradient(135deg, #ccc 25%, transparent 25%), linear-gradient(45deg, transparent 75%, #ccc 75%), linear-gradient(135deg, transparent 75%, #ccc 75%);background-size: 24px 24px;background-position: 0 0, 12px 0, 12px -12px, 0px 12px;"
 xmlns:xlink="http://www.w3.org/1999/xlink"
    xmlns="http://www.w3.org/2000/svg">
  <image width="367" height="239" xlink:href="j239367.png" x="0" y="0" />
  <rect style="fill:#ff0031" width="1" height="1" x="190" y="0"/>
  <rect style="fill:#ff003f" width="1" height="1" x="191" y="0"/>
  <rect style="fill:#ff006b" width="1" height="1" x="189" y="1"/>
  <rect style="fill:#ff0032" width="1" height="1" x="190" y="1"/>
  <rect style="fill:#ff0024" width="1" height="1" x="191" y="1"/>
  <rect style="fill:#ff0060" width="1" height="1" x="189" y="2"/>
  <rect style="fill:#ff0031" width="1" height="1" x="190" y="2"/>
  <rect style="fill:#ff0068" width="1" height="1" x="191" y="2"/>
  <rect style="fill:#ff0066" width="1" height="1" x="189" y="3"/>
  <rect style="fill:#ff002f" width="1" height="1" x="190" y="3"/>
  <rect style="fill:#ff006c" width="1" height="1" x="191" y="3"/>
  <rect style="fill:#ff006c" width="1" height="1" x="189" y="4"/>
  <rect style="fill:#ff002f" width="1" height="1" x="190" y="4"/>
  <rect style="fill:#ff0033" width="1" height="1" x="191" y="4"/>
  <rect style="fill:#ff0069" width="1" height="1" x="189" y="5"/>
  <rect style="fill:#ff0030" width="1" height="1" x="190" y="5"/>
  <rect style="fill:#ff002f" width="1" height="1" x="191" y="5"/>
  <rect style="fill:#ff006b" width="1" height="1" x="189" y="6"/>
  <rect style="fill:#ff0036" width="1" height="1" x="190" y="6"/>
  <rect style="fill:#ff0053" width="1" height="1" x="191" y="6"/>
  <rect style="fill:#ff006b" width="1" height="1" x="189" y="7"/>
  <rect style="fill:#ff003a" width="1" height="1" x="190" y="7"/>
  <rect style="fill:#ff005f" width="1" height="1" x="191" y="7"/>
  <rect style="fill:#ff006b" width="1" height="1" x="189" y="8"/>
  <rect style="fill:#ff0040" width="1" height="1" x="190" y="8"/>
  <rect style="fill:#ff0072" width="1" height="1" x="191" y="8"/>
  <rect style="fill:#ff0068" width="1" height="1" x="189" y="9"/>
  <rect style="fill:#ff003c" width="1" height="1" x="190" y="9"/>
  <rect style="fill:#ff0063" width="1" height="1" x="191" y="9"/>
  <rect style="fill:#ff0063" width="1" height="1" x="189" y="10"/>
  <rect style="fill:#ff0035" width="1" height="1" x="190" y="10"/>
  <rect style="fill:#ff006a" width="1" height="1" x="191" y="10"/>
  <rect style="fill:#ff0055" width="1" height="1" x="189" y="11"/>
  <rect style="fill:#ff0031" width="1" height="1" x="190" y="11"/>
  <rect style="fill:#ff0064" width="1" height="1" x="191" y="11"/>
  <rect style="fill:#ff004f" width="1" height="1" x="189" y="12"/>
  <rect style="fill:#ff0032" width="1" height="1" x="190" y="12"/>
  <rect style="fill:#ff0057" width="1" height="1" x="191" y="12"/>
  <rect style="fill:#ff004e" width="1" height="1" x="189" y="13"/>
  <rect style="fill:#ff002a" width="1" height="1" x="190" y="13"/>
  <rect style="fill:#ff0041" width="1" height="1" x="191" y="13"/>
  <rect style="fill:#ff004f" width="1" height="1" x="189" y="14"/>
  <rect style="fill:#ff0024" width="1" height="1" x="190" y="14"/>
  <rect style="fill:#ff0043" width="1" height="1" x="191" y="14"/>
  <rect style="fill:#ff0054" width="1" height="1" x="189" y="15"/>
  <rect style="fill:#ff0022" width="1" height="1" x="190" y="15"/>
  <rect style="fill:#ff0045" width="1" height="1" x="191" y="15"/>
  <rect style="fill:#ff0054" width="1" height="1" x="189" y="16"/>
  <rect style="fill:#ff000d" width="1" height="1" x="190" y="16"/>
  <rect style="fill:#ff0038" width="1" height="1" x="191" y="16"/>
  <rect style="fill:#ff0052" width="1" height="1" x="189" y="17"/>
  <rect style="fill:#ff000e" width="1" height="1" x="190" y="17"/>
  <rect style="fill:#ff003a" width="1" height="1" x="191" y="17"/>
  <rect style="fill:#ff0054" width="1" height="1" x="189" y="18"/>
  <rect style="fill:#ff0011" width="1" height="1" x="190" y="18"/>
  <rect style="fill:#ff003b" width="1" height="1" x="191" y="18"/>
  <rect style="fill:#ff0055" width="1" height="1" x="189" y="19"/>
  <rect style="fill:#ff0014" width="1" height="1" x="190" y="19"/>
  <rect style="fill:#ff0039" width="1" height="1" x="191" y="19"/>
  <rect style="fill:#ff006b" width="1" height="1" x="189" y="20"/>
  <rect style="fill:#ff002a" width="1" height="1" x="190" y="20"/>
  <rect style="fill:#ff0037" width="1" height="1" x="191" y="20"/>
  <rect style="fill:#ff0069" width="1" height="1" x="189" y="21"/>
  <rect style="fill:#ff0026" width="1" height="1" x="190" y="21"/>
  <rect style="fill:#ff0039" width="1" height="1" x="191" y="21"/>
  <rect style="fill:#ff0070" width="1" height="1" x="189" y="22"/>
  <rect style="fill:#ff002a" width="1" height="1" x="190" y="22"/>
  <rect style="fill:#ff003f" width="1" height="1" x="191" y="22"/>
  <rect style="fill:#ff0072" width="1" height="1" x="189" y="23"/>
  <rect style="fill:#ff002e" width="1" height="1" x="190" y="23"/>
  <rect style="fill:#ff003d" width="1" height="1" x="191" y="23"/>
  <rect style="fill:#ff007d" width="1" height="1" x="189" y="24"/>
  <rect style="fill:#ff004d" width="1" height="1" x="190" y="24"/>
  <rect style="fill:#ff0057" width="1" height="1" x="191" y="24"/>
  <rect style="fill:#ff007e" width="1" height="1" x="189" y="25"/>
  <rect style="fill:#ff0054" width="1" height="1" x="190" y="25"/>
  <rect style="fill:#ff005c" width="1" height="1" x="191" y="25"/>
  <rect style="fill:#ff0080" width="1" height="1" x="189" y="26"/>
  <rect style="fill:#ff0044" width="1" height="1" x="190" y="26"/>
  <rect style="fill:#ff005a" width="1" height="1" x="191" y="26"/>
  <rect style="fill:#ff0080" width="1" height="1" x="189" y="27"/>
  <rect style="fill:#ff004f" width="1" height="1" x="190" y="27"/>
  <rect style="fill:#ff0059" width="1" height="1" x="191" y="27"/>
  <rect style="fill:#ff007c" width="1" height="1" x="189" y="28"/>
  <rect style="fill:#ff0051" width="1" height="1" x="190" y="28"/>
  <rect style="fill:#ff0058" width="1" height="1" x="191" y="28"/>
  <rect style="fill:#ff007e" width="1" height="1" x="189" y="29"/>
  <rect style="fill:#ff0053" width="1" height="1" x="190" y="29"/>
  <rect style="fill:#ff0055" width="1" height="1" x="191" y="29"/>
  <rect style="fill:#ff0082" width="1" height="1" x="189" y="30"/>
  <rect style="fill:#ff0052" width="1" height="1" x="190" y="30"/>
  <rect style="fill:#ff0053" width="1" height="1" x="191" y="30"/>
  <rect style="fill:#ff0080" width="1" height="1" x="189" y="31"/>
  <rect style="fill:#ff0054" width="1" height="1" x="190" y="31"/>
  <rect style="fill:#ff0056" width="1" height="1" x="191" y="31"/>
  <rect style="fill:#ff006f" width="1" height="1" x="189" y="32"/>
  <rect style="fill:#ff0041" width="1" height="1" x="190" y="32"/>
  <rect style="fill:#ff0061" width="1" height="1" x="191" y="32"/>
  <rect style="fill:#ff0024" width="1" height="1" x="190" y="33"/>
  <rect style="fill:#ff0058" width="1" height="1" x="191" y="33"/>
  <rect style="fill:#ff0023" width="1" height="1" x="190" y="34"/>
  <rect style="fill:#ff0044" width="1" height="1" x="191" y="34"/>
  <rect style="fill:#ff002b" width="1" height="1" x="190" y="35"/>
  <rect style="fill:#ff0053" width="1" height="1" x="191" y="35"/>
  <rect style="fill:#ff0090" width="1" height="1" x="189" y="36"/>
  <rect style="fill:#ff0052" width="1" height="1" x="190" y="36"/>
  <rect style="fill:#ff0057" width="1" height="1" x="191" y="36"/>
  <rect style="fill:#ff0090" width="1" height="1" x="189" y="37"/>
  <rect style="fill:#ff0052" width="1" height="1" x="190" y="37"/>
  <rect style="fill:#ff0054" width="1" height="1" x="191" y="37"/>
  <rect style="fill:#ff008f" width="1" height="1" x="189" y="38"/>
  <rect style="fill:#ff0052" width="1" height="1" x="190" y="38"/>
  <rect style="fill:#ff0054" width="1" height="1" x="191" y="38"/>
  <rect style="fill:#ff0091" width="1" height="1" x="189" y="39"/>
  <rect style="fill:#ff0054" width="1" height="1" x="190" y="39"/>
  <rect style="fill:#ff0053" width="1" height="1" x="191" y="39"/>
  <rect style="fill:#ff00a6" width="1" height="1" x="189" y="40"/>
  <rect style="fill:#ff0057" width="1" height="1" x="190" y="40"/>
  <rect style="fill:#ff004c" width="1" height="1" x="191" y="40"/>
  <rect style="fill:#ff00a3" width="1" height="1" x="192" y="40"/>
  <rect style="fill:#ff00a7" width="1" height="1" x="189" y="41"/>
  <rect style="fill:#ff0058" width="1" height="1" x="190" y="41"/>
  <rect style="fill:#ff004e" width="1" height="1" x="191" y="41"/>
  <rect style="fill:#ff00b2" width="1" height="1" x="192" y="41"/>
  <rect style="fill:#ff00a6" width="1" height="1" x="189" y="42"/>
  <rect style="fill:#ff0058" width="1" height="1" x="190" y="42"/>
  <rect style="fill:#ff004a" width="1" height="1" x="191" y="42"/>
  <rect style="fill:#ff00b6" width="1" height="1" x="192" y="42"/>
  <rect style="fill:#ff00a6" width="1" height="1" x="189" y="43"/>
  <rect style="fill:#ff005c" width="1" height="1" x="190" y="43"/>
  <rect style="fill:#ff004d" width="1" height="1" x="191" y="43"/>
  <rect style="fill:#ff00b5" width="1" height="1" x="192" y="43"/>
  <rect style="fill:#ff0087" width="1" height="1" x="189" y="44"/>
  <rect style="fill:#ff004f" width="1" height="1" x="190" y="44"/>
  <rect style="fill:#ff0046" width="1" height="1" x="191" y="44"/>
  <rect style="fill:#ff00bb" width="1" height="1" x="192" y="44"/>
  <rect style="fill:#ff0058" width="1" height="1" x="190" y="45"/>
  <rect style="fill:#ff004f" width="1" height="1" x="191" y="45"/>
  <rect style="fill:#ff00bd" width="1" height="1" x="192" y="45"/>
  <rect style="fill:#ff0069" width="1" height="1" x="190" y="46"/>
  <rect style="fill:#ff005a" width="1" height="1" x="191" y="46"/>
  <rect style="fill:#ff00bb" width="1" height="1" x="192" y="46"/>
  <rect style="fill:#ff0092" width="1" height="1" x="189" y="47"/>
  <rect style="fill:#ff004f" width="1" height="1" x="190" y="47"/>
  <rect style="fill:#ff004f" width="1" height="1" x="191" y="47"/>
  <rect style="fill:#ff00ba" width="1" height="1" x="192" y="47"/>
  <rect style="fill:#ff009b" width="1" height="1" x="189" y="48"/>
  <rect style="fill:#ff0063" width="1" height="1" x="190" y="48"/>
  <rect style="fill:#ff0038" width="1" height="1" x="191" y="48"/>
  <rect style="fill:#ff009d" width="1" height="1" x="192" y="48"/>
  <rect style="fill:#ff00a4" width="1" height="1" x="189" y="49"/>
  <rect style="fill:#ff0065" width="1" height="1" x="190" y="49"/>
  <rect style="fill:#ff0034" width="1" height="1" x="191" y="49"/>
  <rect style="fill:#ff00b4" width="1" height="1" x="192" y="49"/>
  <rect style="fill:#ff00a4" width="1" height="1" x="189" y="50"/>
  <rect style="fill:#ff0065" width="1" height="1" x="190" y="50"/>
  <rect style="fill:#ff004c" width="1" height="1" x="191" y="50"/>
  <rect style="fill:#ff00b3" width="1" height="1" x="192" y="50"/>
  <rect style="fill:#ff00a4" width="1" height="1" x="189" y="51"/>
  <rect style="fill:#ff0065" width="1" height="1" x="190" y="51"/>
  <rect style="fill:#ff0060" width="1" height="1" x="191" y="51"/>
  <rect style="fill:#ff00bd" width="1" height="1" x="192" y="51"/>
  <rect style="fill:#ff00ba" width="1" height="1" x="189" y="52"/>
  <rect style="fill:#ff007c" width="1" height="1" x="190" y="52"/>
  <rect style="fill:#ff0062" width="1" height="1" x="191" y="52"/>
  <rect style="fill:#ff0096" width="1" height="1" x="192" y="52"/>
  <rect style="fill:#ff00c6" width="1" height="1" x="189" y="53"/>
  <rect style="fill:#ff007d" width="1" height="1" x="190" y="53"/>
  <rect style="fill:#ff0060" width="1" height="1" x="191" y="53"/>
  <rect style="fill:#ff009e" width="1" height="1" x="192" y="53"/>
  <rect style="fill:#ff008a" width="1" height="1" x="190" y="54"/>
  <rect style="fill:#ff005e" width="1" height="1" x="191" y="54"/>
  <rect style="fill:#ff009b" width="1" height="1" x="192" y="54"/>
  <rect style="fill:#ff008a" width="1" height="1" x="190" y="55"/>
  <rect style="fill:#ff0064" width="1" height="1" x="191" y="55"/>
  <rect style="fill:#ff009c" width="1" height="1" x="192" y="55"/>
  <rect style="fill:#ff0071" width="1" height="1" x="190" y="56"/>
  <rect style="fill:#ff004b" width="1" height="1" x="191" y="56"/>
  <rect style="fill:#ff00a7" width="1" height="1" x="192" y="56"/>
  <rect style="fill:#ff005c" width="1" height="1" x="190" y="57"/>
  <rect style="fill:#ff0046" width="1" height="1" x="191" y="57"/>
  <rect style="fill:#ff00a6" width="1" height="1" x="192" y="57"/>
  <rect style="fill:#ff005e" width="1" height="1" x="190" y="58"/>
  <rect style="fill:#ff0049" width="1" height="1" x="191" y="58"/>
  <rect style="fill:#ff00ac" width="1" height="1" x="192" y="58"/>
  <rect style="fill:#ff005c" width="1" height="1" x="190" y="59"/>
  <rect style="fill:#ff004c" width="1" height="1" x="191" y="59"/>
  <rect style="fill:#ff00ac" width="1" height="1" x="192" y="59"/>
  <rect style="fill:#ff0057" width="1" height="1" x="190" y="60"/>
  <rect style="fill:#ff004c" width="1" height="1" x="191" y="60"/>
  <rect style="fill:#ff0079" width="1" height="1" x="192" y="60"/>
  <rect style="fill:#ff005b" width="1" height="1" x="190" y="61"/>
  <rect style="fill:#ff004d" width="1" height="1" x="191" y="61"/>
  <rect style="fill:#ff007e" width="1" height="1" x="192" y="61"/>
  <rect style="fill:#ff005f" width="1" height="1" x="190" y="62"/>
  <rect style="fill:#ff0050" width="1" height="1" x="191" y="62"/>
  <rect style="fill:#ff007b" width="1" height="1" x="192" y="62"/>
  <rect style="fill:#ff005c" width="1" height="1" x="190" y="63"/>
  <rect style="fill:#ff004e" width="1" height="1" x="191" y="63"/>
  <rect style="fill:#ff007a" width="1" height="1" x="192" y="63"/>
  <rect style="fill:#ff0066" width="1" height="1" x="190" y="64"/>
  <rect style="fill:#ff004d" width="1" height="1" x="191" y="64"/>
  <rect style="fill:#ff0088" width="1" height="1" x="192" y="64"/>
  <rect style="fill:#ff005f" width="1" height="1" x="190" y="65"/>
  <rect style="fill:#ff004b" width="1" height="1" x="191" y="65"/>
  <rect style="fill:#ff009c" width="1" height="1" x="192" y="65"/>
  <rect style="fill:#ff0058" width="1" height="1" x="190" y="66"/>
  <rect style="fill:#ff0049" width="1" height="1" x="191" y="66"/>
  <rect style="fill:#ff009b" width="1" height="1" x="192" y="66"/>
  <rect style="fill:#ff005a" width="1" height="1" x="190" y="67"/>
  <rect style="fill:#ff004a" width="1" height="1" x="191" y="67"/>
  <rect style="fill:#ff00a0" width="1" height="1" x="192" y="67"/>
  <rect style="fill:#ff0070" width="1" height="1" x="190" y="68"/>
  <rect style="fill:#ff0044" width="1" height="1" x="191" y="68"/>
  <rect style="fill:#ff0070" width="1" height="1" x="192" y="68"/>
  <rect style="fill:#ff0070" width="1" height="1" x="190" y="69"/>
  <rect style="fill:#ff0043" width="1" height="1" x="191" y="69"/>
  <rect style="fill:#ff0070" width="1" height="1" x="192" y="69"/>
  <rect style="fill:#ff007a" width="1" height="1" x="190" y="70"/>
  <rect style="fill:#ff004d" width="1" height="1" x="191" y="70"/>
  <rect style="fill:#ff0075" width="1" height="1" x="192" y="70"/>
  <rect style="fill:#ff007d" width="1" height="1" x="190" y="71"/>
  <rect style="fill:#ff0055" width="1" height="1" x="191" y="71"/>
  <rect style="fill:#ff0077" width="1" height="1" x="192" y="71"/>
  <rect style="fill:#ff007d" width="1" height="1" x="190" y="72"/>
  <rect style="fill:#ff004a" width="1" height="1" x="191" y="72"/>
  <rect style="fill:#ff0094" width="1" height="1" x="192" y="72"/>
  <rect style="fill:#ff007a" width="1" height="1" x="190" y="73"/>
  <rect style="fill:#ff0048" width="1" height="1" x="191" y="73"/>
  <rect style="fill:#ff009d" width="1" height="1" x="192" y="73"/>
  <rect style="fill:#ff0072" width="1" height="1" x="190" y="74"/>
  <rect style="fill:#ff0048" width="1" height="1" x="191" y="74"/>
  <rect style="fill:#ff0097" width="1" height="1" x="192" y="74"/>
  <rect style="fill:#ff006a" width="1" height="1" x="190" y="75"/>
  <rect style="fill:#ff0040" width="1" height="1" x="191" y="75"/>
  <rect style="fill:#ff008f" width="1" height="1" x="192" y="75"/>
  <rect style="fill:#ff0069" width="1" height="1" x="190" y="76"/>
  <rect style="fill:#ff0035" width="1" height="1" x="191" y="76"/>
  <rect style="fill:#ff0077" width="1" height="1" x="192" y="76"/>
  <rect style="fill:#ff006b" width="1" height="1" x="190" y="77"/>
  <rect style="fill:#ff0021" width="1" height="1" x="191" y="77"/>
  <rect style="fill:#ff0077" width="1" height="1" x="192" y="77"/>
  <rect style="fill:#ff006a" width="1" height="1" x="190" y="78"/>
  <rect style="fill:#ff0026" width="1" height="1" x="191" y="78"/>
  <rect style="fill:#ff0079" width="1" height="1" x="192" y="78"/>
  <rect style="fill:#ff0069" width="1" height="1" x="190" y="79"/>
  <rect style="fill:#ff0029" width="1" height="1" x="191" y="79"/>
  <rect style="fill:#ff0079" width="1" height="1" x="192" y="79"/>
  <rect style="fill:#ff008d" width="1" height="1" x="190" y="80"/>
  <rect style="fill:#ff0058" width="1" height="1" x="191" y="80"/>
  <rect style="fill:#ff007e" width="1" height="1" x="192" y="80"/>
  <rect style="fill:#ff0098" width="1" height="1" x="190" y="81"/>
  <rect style="fill:#ff0058" width="1" height="1" x="191" y="81"/>
  <rect style="fill:#ff0087" width="1" height="1" x="192" y="81"/>
  <rect style="fill:#ff009d" width="1" height="1" x="190" y="82"/>
  <rect style="fill:#ff0058" width="1" height="1" x="191" y="82"/>
  <rect style="fill:#ff0089" width="1" height="1" x="192" y="82"/>
  <rect style="fill:#ff009e" width="1" height="1" x="190" y="83"/>
  <rect style="fill:#ff0059" width="1" height="1" x="191" y="83"/>
  <rect style="fill:#ff0083" width="1" height="1" x="192" y="83"/>
  <rect style="fill:#ff0083" width="1" height="1" x="190" y="84"/>
  <rect style="fill:#ff0047" width="1" height="1" x="191" y="84"/>
  <rect style="fill:#ff008a" width="1" height="1" x="192" y="84"/>
  <rect style="fill:#ff007c" width="1" height="1" x="190" y="85"/>
  <rect style="fill:#ff0040" width="1" height="1" x="191" y="85"/>
  <rect style="fill:#ff0086" width="1" height="1" x="192" y="85"/>
  <rect style="fill:#ff0079" width="1" height="1" x="190" y="86"/>
  <rect style="fill:#ff003c" width="1" height="1" x="191" y="86"/>
  <rect style="fill:#ff007e" width="1" height="1" x="192" y="86"/>
  <rect style="fill:#ff0070" width="1" height="1" x="190" y="87"/>
  <rect style="fill:#ff0042" width="1" height="1" x="191" y="87"/>
  <rect style="fill:#ff008a" width="1" height="1" x="192" y="87"/>
  <rect style="fill:#ff0073" width="1" height="1" x="190" y="88"/>
  <rect style="fill:#ff005d" width="1" height="1" x="191" y="88"/>
  <rect style="fill:#ff00aa" width="1" height="1" x="192" y="88"/>
  <rect style="fill:#ff007d" width="1" height="1" x="190" y="89"/>
  <rect style="fill:#ff0058" width="1" height="1" x="191" y="89"/>
  <rect style="fill:#ff009f" width="1" height="1" x="192" y="89"/>
  <rect style="fill:#ff007f" width="1" height="1" x="190" y="90"/>
  <rect style="fill:#ff005c" width="1" height="1" x="191" y="90"/>
  <rect style="fill:#ff00a4" width="1" height="1" x="192" y="90"/>
  <rect style="fill:#ff008a" width="1" height="1" x="190" y="91"/>
  <rect style="fill:#ff0059" width="1" height="1" x="191" y="91"/>
  <rect style="fill:#ff00a4" width="1" height="1" x="192" y="91"/>
  <rect style="fill:#ff0083" width="1" height="1" x="190" y="92"/>
  <rect style="fill:#ff005f" width="1" height="1" x="191" y="92"/>
  <rect style="fill:#ff00ad" width="1" height="1" x="192" y="92"/>
  <rect style="fill:#ff0079" width="1" height="1" x="190" y="93"/>
  <rect style="fill:#ff0066" width="1" height="1" x="191" y="93"/>
  <rect style="fill:#ff00b2" width="1" height="1" x="192" y="93"/>
  <rect style="fill:#ff006d" width="1" height="1" x="190" y="94"/>
  <rect style="fill:#ff005b" width="1" height="1" x="191" y="94"/>
  <rect style="fill:#ff00aa" width="1" height="1" x="192" y="94"/>
  <rect style="fill:#ff0069" width="1" height="1" x="190" y="95"/>
  <rect style="fill:#ff0061" width="1" height="1" x="191" y="95"/>
  <rect style="fill:#ff00a8" width="1" height="1" x="192" y="95"/>
  <rect style="fill:#ff007d" width="1" height="1" x="190" y="96"/>
  <rect style="fill:#ff0059" width="1" height="1" x="191" y="96"/>
  <rect style="fill:#ff00a1" width="1" height="1" x="192" y="96"/>
  <rect style="fill:#ff0084" width="1" height="1" x="190" y="97"/>
  <rect style="fill:#ff0060" width="1" height="1" x="191" y="97"/>
  <rect style="fill:#ff009c" width="1" height="1" x="192" y="97"/>
  <rect style="fill:#ff008b" width="1" height="1" x="190" y="98"/>
  <rect style="fill:#ff0064" width="1" height="1" x="191" y="98"/>
  <rect style="fill:#ff0094" width="1" height="1" x="192" y="98"/>
  <rect style="fill:#ff0089" width="1" height="1" x="190" y="99"/>
  <rect style="fill:#ff0059" width="1" height="1" x="191" y="99"/>
  <rect style="fill:#ff008a" width="1" height="1" x="192" y="99"/>
  <rect style="fill:#ff009d" width="1" height="1" x="190" y="100"/>
  <rect style="fill:#ff0059" width="1" height="1" x="191" y="100"/>
  <rect style="fill:#ff0079" width="1" height="1" x="192" y="100"/>
  <rect style="fill:#ff009d" width="1" height="1" x="190" y="101"/>
  <rect style="fill:#ff0064" width="1" height="1" x="191" y="101"/>
  <rect style="fill:#ff0067" width="1" height="1" x="192" y="101"/>
  <rect style="fill:#ff00a2" width="1" height="1" x="190" y="102"/>
  <rect style="fill:#ff005b" width="1" height="1" x="191" y="102"/>
  <rect style="fill:#ff006e" width="1" height="1" x="192" y="102"/>
  <rect style="fill:#ff009e" width="1" height="1" x="190" y="103"/>
  <rect style="fill:#ff005e" width="1" height="1" x="191" y="103"/>
  <rect style="fill:#ff0074" width="1" height="1" x="192" y="103"/>
  <rect style="fill:#ff00a6" width="1" height="1" x="190" y="104"/>
  <rect style="fill:#ff005a" width="1" height="1" x="191" y="104"/>
  <rect style="fill:#ff005e" width="1" height="1" x="192" y="104"/>
  <rect style="fill:#ff00a6" width="1" height="1" x="190" y="105"/>
  <rect style="fill:#ff005b" width="1" height="1" x="191" y="105"/>
  <rect style="fill:#ff0060" width="1" height="1" x="192" y="105"/>
  <rect style="fill:#ff00a9" width="1" height="1" x="190" y="106"/>
  <rect style="fill:#ff0059" width="1" height="1" x="191" y="106"/>
  <rect style="fill:#ff0060" width="1" height="1" x="192" y="106"/>
  <rect style="fill:#ff00a6" width="1" height="1" x="190" y="107"/>
  <rect style="fill:#ff0057" width="1" height="1" x="191" y="107"/>
  <rect style="fill:#ff0058" width="1" height="1" x="192" y="107"/>
  <rect style="fill:#ff00aa" width="1" height="1" x="190" y="108"/>
  <rect style="fill:#ff0064" width="1" height="1" x="191" y="108"/>
  <rect style="fill:#ff0065" width="1" height="1" x="192" y="108"/>
  <rect style="fill:#ff0096" width="1" height="1" x="190" y="109"/>
  <rect style="fill:#ff0056" width="1" height="1" x="191" y="109"/>
  <rect style="fill:#ff0067" width="1" height="1" x="192" y="109"/>
  <rect style="fill:#ff0090" width="1" height="1" x="190" y="110"/>
  <rect style="fill:#ff004b" width="1" height="1" x="191" y="110"/>
  <rect style="fill:#ff0060" width="1" height="1" x="192" y="110"/>
  <rect style="fill:#ff0087" width="1" height="1" x="190" y="111"/>
  <rect style="fill:#ff0048" width="1" height="1" x="191" y="111"/>
  <rect style="fill:#ff0068" width="1" height="1" x="192" y="111"/>
  <rect style="fill:#ff00a7" width="1" height="1" x="190" y="112"/>
  <rect style="fill:#ff0059" width="1" height="1" x="191" y="112"/>
  <rect style="fill:#ff006e" width="1" height="1" x="192" y="112"/>
  <rect style="fill:#ff00a7" width="1" height="1" x="190" y="113"/>
  <rect style="fill:#ff0050" width="1" height="1" x="191" y="113"/>
  <rect style="fill:#ff0074" width="1" height="1" x="192" y="113"/>
  <rect style="fill:#ff00ab" width="1" height="1" x="190" y="114"/>
  <rect style="fill:#ff005a" width="1" height="1" x="191" y="114"/>
  <rect style="fill:#ff006b" width="1" height="1" x="192" y="114"/>
  <rect style="fill:#ff00af" width="1" height="1" x="190" y="115"/>
  <rect style="fill:#ff005d" width="1" height="1" x="191" y="115"/>
  <rect style="fill:#ff005e" width="1" height="1" x="192" y="115"/>
  <rect style="fill:#ff009c" width="1" height="1" x="190" y="116"/>
  <rect style="fill:#ff007d" width="1" height="1" x="191" y="116"/>
  <rect style="fill:#ff0071" width="1" height="1" x="192" y="116"/>
  <rect style="fill:#ff0089" width="1" height="1" x="190" y="117"/>
  <rect style="fill:#ff007b" width="1" height="1" x="191" y="117"/>
  <rect style="fill:#ff0072" width="1" height="1" x="192" y="117"/>
  <rect style="fill:#ff008c" width="1" height="1" x="190" y="118"/>
  <rect style="fill:#ff0064" width="1" height="1" x="191" y="118"/>
  <rect style="fill:#ff0050" width="1" height="1" x="192" y="118"/>
  <rect style="fill:#ff00ab" width="1" height="1" x="193" y="118"/>
  <rect style="fill:#ff008c" width="1" height="1" x="190" y="119"/>
  <rect style="fill:#ff0052" width="1" height="1" x="191" y="119"/>
  <rect style="fill:#ff0047" width="1" height="1" x="192" y="119"/>
  <rect style="fill:#ff00a0" width="1" height="1" x="190" y="120"/>
  <rect style="fill:#ff0070" width="1" height="1" x="191" y="120"/>
  <rect style="fill:#ff006c" width="1" height="1" x="192" y="120"/>
  <rect style="fill:#ff00b8" width="1" height="1" x="190" y="121"/>
  <rect style="fill:#ff006f" width="1" height="1" x="191" y="121"/>
  <rect style="fill:#ff0060" width="1" height="1" x="192" y="121"/>
  <rect style="fill:#ff00c2" width="1" height="1" x="190" y="122"/>
  <rect style="fill:#ff006d" width="1" height="1" x="191" y="122"/>
  <rect style="fill:#ff005f" width="1" height="1" x="192" y="122"/>
  <rect style="fill:#ff0071" width="1" height="1" x="191" y="123"/>
  <rect style="fill:#ff005e" width="1" height="1" x="192" y="123"/>
  <rect style="fill:#ff0077" width="1" height="1" x="191" y="124"/>
  <rect style="fill:#ff0064" width="1" height="1" x="192" y="124"/>
  <rect style="fill:#ff0073" width="1" height="1" x="191" y="125"/>
  <rect style="fill:#ff0064" width="1" height="1" x="192" y="125"/>
  <rect style="fill:#ff006f" width="1" height="1" x="191" y="126"/>
  <rect style="fill:#ff0060" width="1" height="1" x="192" y="126"/>
  <rect style="fill:#ff0063" width="1" height="1" x="191" y="127"/>
  <rect style="fill:#ff005e" width="1" height="1" x="192" y="127"/>
  <rect style="fill:#ff0054" width="1" height="1" x="191" y="128"/>
  <rect style="fill:#ff0050" width="1" height="1" x="192" y="128"/>
  <rect style="fill:#ff0044" width="1" height="1" x="191" y="129"/>
  <rect style="fill:#ff0050" width="1" height="1" x="192" y="129"/>
  <rect style="fill:#ff0048" width="1" height="1" x="191" y="130"/>
  <rect style="fill:#ff0060" width="1" height="1" x="192" y="130"/>
  <rect style="fill:#ff004a" width="1" height="1" x="191" y="131"/>
  <rect style="fill:#ff0051" width="1" height="1" x="192" y="131"/>
  <rect style="fill:#ff0083" width="1" height="1" x="191" y="132"/>
  <rect style="fill:#ff0079" width="1" height="1" x="192" y="132"/>
  <rect style="fill:#ff007c" width="1" height="1" x="191" y="133"/>
  <rect style="fill:#ff005f" width="1" height="1" x="192" y="133"/>
  <rect style="fill:#ff0075" width="1" height="1" x="191" y="134"/>
  <rect style="fill:#ff004f" width="1" height="1" x="192" y="134"/>
  <rect style="fill:#ff009e" width="1" height="1" x="193" y="134"/>
  <rect style="fill:#ff007c" width="1" height="1" x="191" y="135"/>
  <rect style="fill:#ff0066" width="1" height="1" x="192" y="135"/>
  <rect style="fill:#ff009d" width="1" height="1" x="193" y="135"/>
  <rect style="fill:#ff005c" width="1" height="1" x="191" y="136"/>
  <rect style="fill:#ff005e" width="1" height="1" x="192" y="136"/>
  <rect style="fill:#ff00a2" width="1" height="1" x="193" y="136"/>
  <rect style="fill:#ff0051" width="1" height="1" x="191" y="137"/>
  <rect style="fill:#ff005c" width="1" height="1" x="192" y="137"/>
  <rect style="fill:#ff00a1" width="1" height="1" x="193" y="137"/>
  <rect style="fill:#ff004e" width="1" height="1" x="191" y="138"/>
  <rect style="fill:#ff004c" width="1" height="1" x="192" y="138"/>
  <rect style="fill:#ff009e" width="1" height="1" x="193" y="138"/>
  <rect style="fill:#ff004c" width="1" height="1" x="191" y="139"/>
  <rect style="fill:#ff004b" width="1" height="1" x="192" y="139"/>
  <rect style="fill:#ff0099" width="1" height="1" x="193" y="139"/>
  <rect style="fill:#ff0071" width="1" height="1" x="191" y="140"/>
  <rect style="fill:#ff0057" width="1" height="1" x="192" y="140"/>
  <rect style="fill:#ff0081" width="1" height="1" x="193" y="140"/>
  <rect style="fill:#ff006b" width="1" height="1" x="191" y="141"/>
  <rect style="fill:#ff004d" width="1" height="1" x="192" y="141"/>
  <rect style="fill:#ff0081" width="1" height="1" x="193" y="141"/>
  <rect style="fill:#ff006d" width="1" height="1" x="191" y="142"/>
  <rect style="fill:#ff004c" width="1" height="1" x="192" y="142"/>
  <rect style="fill:#ff0081" width="1" height="1" x="193" y="142"/>
  <rect style="fill:#ff0067" width="1" height="1" x="191" y="143"/>
  <rect style="fill:#ff0050" width="1" height="1" x="192" y="143"/>
  <rect style="fill:#ff008d" width="1" height="1" x="193" y="143"/>
  <rect style="fill:#ff006f" width="1" height="1" x="191" y="144"/>
  <rect style="fill:#ff0050" width="1" height="1" x="192" y="144"/>
  <rect style="fill:#ff0094" width="1" height="1" x="193" y="144"/>
  <rect style="fill:#ff0075" width="1" height="1" x="191" y="145"/>
  <rect style="fill:#ff004e" width="1" height="1" x="192" y="145"/>
  <rect style="fill:#ff0095" width="1" height="1" x="193" y="145"/>
  <rect style="fill:#ff0077" width="1" height="1" x="191" y="146"/>
  <rect style="fill:#ff004a" width="1" height="1" x="192" y="146"/>
  <rect style="fill:#ff008e" width="1" height="1" x="193" y="146"/>
  <rect style="fill:#ff0073" width="1" height="1" x="191" y="147"/>
  <rect style="fill:#ff004a" width="1" height="1" x="192" y="147"/>
  <rect style="fill:#ff0093" width="1" height="1" x="193" y="147"/>
  <rect style="fill:#ff0086" width="1" height="1" x="191" y="148"/>
  <rect style="fill:#ff003e" width="1" height="1" x="192" y="148"/>
  <rect style="fill:#ff008c" width="1" height="1" x="193" y="148"/>
  <rect style="fill:#ff008c" width="1" height="1" x="191" y="149"/>
  <rect style="fill:#ff0048" width="1" height="1" x="192" y="149"/>
  <rect style="fill:#ff0092" width="1" height="1" x="193" y="149"/>
  <rect style="fill:#ff0088" width="1" height="1" x="191" y="150"/>
  <rect style="fill:#ff0043" width="1" height="1" x="192" y="150"/>
  <rect style="fill:#ff0094" width="1" height="1" x="193" y="150"/>
  <rect style="fill:#ff007d" width="1" height="1" x="191" y="151"/>
  <rect style="fill:#ff0038" width="1" height="1" x="192" y="151"/>
  <rect style="fill:#ff008d" width="1" height="1" x="193" y="151"/>
  <rect style="fill:#ff007e" width="1" height="1" x="191" y="152"/>
  <rect style="fill:#ff0021" width="1" height="1" x="192" y="152"/>
  <rect style="fill:#ff0072" width="1" height="1" x="193" y="152"/>
  <rect style="fill:#ff0084" width="1" height="1" x="191" y="153"/>
  <rect style="fill:#ff0025" width="1" height="1" x="192" y="153"/>
  <rect style="fill:#ff0070" width="1" height="1" x="193" y="153"/>
  <rect style="fill:#ff007e" width="1" height="1" x="191" y="154"/>
  <rect style="fill:#ff0020" width="1" height="1" x="192" y="154"/>
  <rect style="fill:#ff006e" width="1" height="1" x="193" y="154"/>
  <rect style="fill:#ff0082" width="1" height="1" x="191" y="155"/>
  <rect style="fill:#ff0024" width="1" height="1" x="192" y="155"/>
  <rect style="fill:#ff006f" width="1" height="1" x="193" y="155"/>
  <rect style="fill:#ff0066" width="1" height="1" x="191" y="156"/>
  <rect style="fill:#ff0034" width="1" height="1" x="192" y="156"/>
  <rect style="fill:#ff0094" width="1" height="1" x="193" y="156"/>
  <rect style="fill:#ff006f" width="1" height="1" x="191" y="157"/>
  <rect style="fill:#ff005c" width="1" height="1" x="192" y="157"/>
  <rect style="fill:#ff00a6" width="1" height="1" x="193" y="157"/>
  <rect style="fill:#ff0075" width="1" height="1" x="191" y="158"/>
  <rect style="fill:#ff005a" width="1" height="1" x="192" y="158"/>
  <rect style="fill:#ff009f" width="1" height="1" x="193" y="158"/>
  <rect style="fill:#ff0071" width="1" height="1" x="191" y="159"/>
  <rect style="fill:#ff0059" width="1" height="1" x="192" y="159"/>
  <rect style="fill:#ff009a" width="1" height="1" x="193" y="159"/>
  <rect style="fill:#ff008b" width="1" height="1" x="191" y="160"/>
  <rect style="fill:#ff006f" width="1" height="1" x="192" y="160"/>
  <rect style="fill:#ff00a1" width="1" height="1" x="193" y="160"/>
  <rect style="fill:#ff0088" width="1" height="1" x="191" y="161"/>
  <rect style="fill:#ff006d" width="1" height="1" x="192" y="161"/>
  <rect style="fill:#ff009a" width="1" height="1" x="193" y="161"/>
  <rect style="fill:#ff0085" width="1" height="1" x="191" y="162"/>
  <rect style="fill:#ff006e" width="1" height="1" x="192" y="162"/>
  <rect style="fill:#ff0094" width="1" height="1" x="193" y="162"/>
  <rect style="fill:#ff0085" width="1" height="1" x="191" y="163"/>
  <rect style="fill:#ff006e" width="1" height="1" x="192" y="163"/>
  <rect style="fill:#ff0095" width="1" height="1" x="193" y="163"/>
  <rect style="fill:#ff0089" width="1" height="1" x="191" y="164"/>
  <rect style="fill:#ff003c" width="1" height="1" x="192" y="164"/>
  <rect style="fill:#ff00a0" width="1" height="1" x="193" y="164"/>
  <rect style="fill:#ff008a" width="1" height="1" x="191" y="165"/>
  <rect style="fill:#ff003f" width="1" height="1" x="192" y="165"/>
  <rect style="fill:#ff0076" width="1" height="1" x="193" y="165"/>
  <rect style="fill:#ff0087" width="1" height="1" x="191" y="166"/>
  <rect style="fill:#ff0038" width="1" height="1" x="192" y="166"/>
  <rect style="fill:#ff0073" width="1" height="1" x="193" y="166"/>
  <rect style="fill:#ff0088" width="1" height="1" x="191" y="167"/>
  <rect style="fill:#ff0039" width="1" height="1" x="192" y="167"/>
  <rect style="fill:#ff006e" width="1" height="1" x="193" y="167"/>
  <rect style="fill:#ff008a" width="1" height="1" x="191" y="168"/>
  <rect style="fill:#ff002d" width="1" height="1" x="192" y="168"/>
  <rect style="fill:#ff0075" width="1" height="1" x="193" y="168"/>
  <rect style="fill:#ff0091" width="1" height="1" x="191" y="169"/>
  <rect style="fill:#ff002c" width="1" height="1" x="192" y="169"/>
  <rect style="fill:#ff006d" width="1" height="1" x="193" y="169"/>
  <rect style="fill:#ff0098" width="1" height="1" x="191" y="170"/>
  <rect style="fill:#ff002c" width="1" height="1" x="192" y="170"/>
  <rect style="fill:#ff0061" width="1" height="1" x="193" y="170"/>
  <rect style="fill:#ff009b" width="1" height="1" x="191" y="171"/>
  <rect style="fill:#ff0031" width="1" height="1" x="192" y="171"/>
  <rect style="fill:#ff0066" width="1" height="1" x="193" y="171"/>
  <rect style="fill:#ff0098" width="1" height="1" x="191" y="172"/>
  <rect style="fill:#ff004b" width="1" height="1" x="192" y="172"/>
  <rect style="fill:#ff0074" width="1" height="1" x="193" y="172"/>
  <rect style="fill:#ff00aa" width="1" height="1" x="191" y="173"/>
  <rect style="fill:#ff0045" width="1" height="1" x="192" y="173"/>
  <rect style="fill:#ff007a" width="1" height="1" x="193" y="173"/>
  <rect style="fill:#ff00ad" width="1" height="1" x="191" y="174"/>
  <rect style="fill:#ff0044" width="1" height="1" x="192" y="174"/>
  <rect style="fill:#ff0063" width="1" height="1" x="193" y="174"/>
  <rect style="fill:#ff00ab" width="1" height="1" x="191" y="175"/>
  <rect style="fill:#ff0046" width="1" height="1" x="192" y="175"/>
  <rect style="fill:#ff0060" width="1" height="1" x="193" y="175"/>
  <rect style="fill:#ff00a8" width="1" height="1" x="191" y="176"/>
  <rect style="fill:#ff003c" width="1" height="1" x="192" y="176"/>
  <rect style="fill:#ff005e" width="1" height="1" x="193" y="176"/>
  <rect style="fill:#ff00a8" width="1" height="1" x="191" y="177"/>
  <rect style="fill:#ff003c" width="1" height="1" x="192" y="177"/>
  <rect style="fill:#ff0061" width="1" height="1" x="193" y="177"/>
  <rect style="fill:#ff00aa" width="1" height="1" x="191" y="178"/>
  <rect style="fill:#ff003d" width="1" height="1" x="192" y="178"/>
  <rect style="fill:#ff005f" width="1" height="1" x="193" y="178"/>
  <rect style="fill:#ff00ae" width="1" height="1" x="191" y="179"/>
  <rect style="fill:#ff003d" width="1" height="1" x="192" y="179"/>
  <rect style="fill:#ff005e" width="1" height="1" x="193" y="179"/>
  <rect style="fill:#ff00ab" width="1" height="1" x="191" y="180"/>
  <rect style="fill:#ff0049" width="1" height="1" x="192" y="180"/>
  <rect style="fill:#ff005e" width="1" height="1" x="193" y="180"/>
  <rect style="fill:#ff00ab" width="1" height="1" x="191" y="181"/>
  <rect style="fill:#ff004e" width="1" height="1" x="192" y="181"/>
  <rect style="fill:#ff0066" width="1" height="1" x="193" y="181"/>
  <rect style="fill:#ff00a9" width="1" height="1" x="191" y="182"/>
  <rect style="fill:#ff004f" width="1" height="1" x="192" y="182"/>
  <rect style="fill:#ff005e" width="1" height="1" x="193" y="182"/>
  <rect style="fill:#ff00a9" width="1" height="1" x="191" y="183"/>
  <rect style="fill:#ff004f" width="1" height="1" x="192" y="183"/>
  <rect style="fill:#ff005d" width="1" height="1" x="193" y="183"/>
  <rect style="fill:#ff00b1" width="1" height="1" x="191" y="184"/>
  <rect style="fill:#ff0064" width="1" height="1" x="192" y="184"/>
  <rect style="fill:#ff0070" width="1" height="1" x="193" y="184"/>
  <rect style="fill:#ff00b4" width="1" height="1" x="191" y="185"/>
  <rect style="fill:#ff007e" width="1" height="1" x="192" y="185"/>
  <rect style="fill:#ff0071" width="1" height="1" x="193" y="185"/>
  <rect style="fill:#ff009b" width="1" height="1" x="191" y="186"/>
  <rect style="fill:#ff0065" width="1" height="1" x="192" y="186"/>
  <rect style="fill:#ff006e" width="1" height="1" x="193" y="186"/>
  <rect style="fill:#ff0088" width="1" height="1" x="191" y="187"/>
  <rect style="fill:#ff0050" width="1" height="1" x="192" y="187"/>
  <rect style="fill:#ff0056" width="1" height="1" x="193" y="187"/>
  <rect style="fill:#ff009e" width="1" height="1" x="191" y="188"/>
  <rect style="fill:#ff0062" width="1" height="1" x="192" y="188"/>
  <rect style="fill:#ff006c" width="1" height="1" x="193" y="188"/>
  <rect style="fill:#ff009d" width="1" height="1" x="191" y="189"/>
  <rect style="fill:#ff005c" width="1" height="1" x="192" y="189"/>
  <rect style="fill:#ff0066" width="1" height="1" x="193" y="189"/>
  <rect style="fill:#ff0099" width="1" height="1" x="191" y="190"/>
  <rect style="fill:#ff005c" width="1" height="1" x="192" y="190"/>
  <rect style="fill:#ff005e" width="1" height="1" x="193" y="190"/>
  <rect style="fill:#ff009b" width="1" height="1" x="191" y="191"/>
  <rect style="fill:#ff005a" width="1" height="1" x="192" y="191"/>
  <rect style="fill:#ff0067" width="1" height="1" x="193" y="191"/>
  <rect style="fill:#ff009b" width="1" height="1" x="191" y="192"/>
  <rect style="fill:#ff003d" width="1" height="1" x="192" y="192"/>
  <rect style="fill:#ff0054" width="1" height="1" x="193" y="192"/>
  <rect style="fill:#ff009b" width="1" height="1" x="191" y="193"/>
  <rect style="fill:#ff003d" width="1" height="1" x="192" y="193"/>
  <rect style="fill:#ff0052" width="1" height="1" x="193" y="193"/>
  <rect style="fill:#ff009b" width="1" height="1" x="191" y="194"/>
  <rect style="fill:#ff003a" width="1" height="1" x="192" y="194"/>
  <rect style="fill:#ff0054" width="1" height="1" x="193" y="194"/>
  <rect style="fill:#ff00a5" width="1" height="1" x="191" y="195"/>
  <rect style="fill:#ff003b" width="1" height="1" x="192" y="195"/>
  <rect style="fill:#ff0054" width="1" height="1" x="193" y="195"/>
  <rect style="fill:#ff008a" width="1" height="1" x="191" y="196"/>
  <rect style="fill:#ff004a" width="1" height="1" x="192" y="196"/>
  <rect style="fill:#ff005b" width="1" height="1" x="193" y="196"/>
  <rect style="fill:#ff00aa" width="1" height="1" x="194" y="196"/>
  <rect style="fill:#ff008a" width="1" height="1" x="191" y="197"/>
  <rect style="fill:#ff0046" width="1" height="1" x="192" y="197"/>
  <rect style="fill:#ff005e" width="1" height="1" x="193" y="197"/>
  <rect style="fill:#ff00ab" width="1" height="1" x="194" y="197"/>
  <rect style="fill:#ff008c" width="1" height="1" x="191" y="198"/>
  <rect style="fill:#ff0049" width="1" height="1" x="192" y="198"/>
  <rect style="fill:#ff0060" width="1" height="1" x="193" y="198"/>
  <rect style="fill:#ff00ad" width="1" height="1" x="194" y="198"/>
  <rect style="fill:#ff0090" width="1" height="1" x="191" y="199"/>
  <rect style="fill:#ff0050" width="1" height="1" x="192" y="199"/>
  <rect style="fill:#ff005e" width="1" height="1" x="193" y="199"/>
  <rect style="fill:#ff00aa" width="1" height="1" x="191" y="200"/>
  <rect style="fill:#ff0064" width="1" height="1" x="192" y="200"/>
  <rect style="fill:#ff005d" width="1" height="1" x="193" y="200"/>
  <rect style="fill:#ff00ad" width="1" height="1" x="194" y="200"/>
  <rect style="fill:#ff0065" width="1" height="1" x="192" y="201"/>
  <rect style="fill:#ff005d" width="1" height="1" x="193" y="201"/>
  <rect style="fill:#ff00a7" width="1" height="1" x="194" y="201"/>
  <rect style="fill:#ff0067" width="1" height="1" x="192" y="202"/>
  <rect style="fill:#ff005e" width="1" height="1" x="193" y="202"/>
  <rect style="fill:#ff00a7" width="1" height="1" x="194" y="202"/>
  <rect style="fill:#ff0066" width="1" height="1" x="192" y="203"/>
  <rect style="fill:#ff005c" width="1" height="1" x="193" y="203"/>
  <rect style="fill:#ff00a6" width="1" height="1" x="194" y="203"/>
  <rect style="fill:#ff003d" width="1" height="1" x="192" y="204"/>
  <rect style="fill:#ff003a" width="1" height="1" x="193" y="204"/>
  <rect style="fill:#ff0099" width="1" height="1" x="194" y="204"/>
  <rect style="fill:#ff003f" width="1" height="1" x="192" y="205"/>
  <rect style="fill:#ff001b" width="1" height="1" x="193" y="205"/>
  <rect style="fill:#ff00a9" width="1" height="1" x="194" y="205"/>
  <rect style="fill:#ff0043" width="1" height="1" x="192" y="206"/>
  <rect style="fill:#ff003d" width="1" height="1" x="193" y="206"/>
  <rect style="fill:#ff00ad" width="1" height="1" x="194" y="206"/>
  <rect style="fill:#ff005b" width="1" height="1" x="192" y="207"/>
  <rect style="fill:#ff0053" width="1" height="1" x="193" y="207"/>
  <rect style="fill:#ff00b7" width="1" height="1" x="194" y="207"/>
  <rect style="fill:#ff005e" width="1" height="1" x="192" y="208"/>
  <rect style="fill:#ff0048" width="1" height="1" x="193" y="208"/>
  <rect style="fill:#ff0087" width="1" height="1" x="194" y="208"/>
  <rect style="fill:#ff005c" width="1" height="1" x="192" y="209"/>
  <rect style="fill:#ff002a" width="1" height="1" x="193" y="209"/>
  <rect style="fill:#ff0069" width="1" height="1" x="194" y="209"/>
  <rect style="fill:#ff0052" width="1" height="1" x="192" y="210"/>
  <rect style="fill:#ff001f" width="1" height="1" x="193" y="210"/>
  <rect style="fill:#ff005e" width="1" height="1" x="194" y="210"/>
  <rect style="fill:#ff0056" width="1" height="1" x="192" y="211"/>
  <rect style="fill:#ff001f" width="1" height="1" x="193" y="211"/>
  <rect style="fill:#ff005c" width="1" height="1" x="194" y="211"/>
  <rect style="fill:#ff0071" width="1" height="1" x="192" y="212"/>
  <rect style="fill:#ff003e" width="1" height="1" x="193" y="212"/>
  <rect style="fill:#ff0078" width="1" height="1" x="194" y="212"/>
  <rect style="fill:#ff006f" width="1" height="1" x="192" y="213"/>
  <rect style="fill:#ff0053" width="1" height="1" x="193" y="213"/>
  <rect style="fill:#ff008b" width="1" height="1" x="194" y="213"/>
  <rect style="fill:#ff0057" width="1" height="1" x="192" y="214"/>
  <rect style="fill:#ff0034" width="1" height="1" x="193" y="214"/>
  <rect style="fill:#ff0070" width="1" height="1" x="194" y="214"/>
  <rect style="fill:#ff0042" width="1" height="1" x="192" y="215"/>
  <rect style="fill:#ff001c" width="1" height="1" x="193" y="215"/>
  <rect style="fill:#ff0057" width="1" height="1" x="194" y="215"/>
  <rect style="fill:#ff004b" width="1" height="1" x="192" y="216"/>
  <rect style="fill:#ff002e" width="1" height="1" x="193" y="216"/>
  <rect style="fill:#ff0084" width="1" height="1" x="194" y="216"/>
  <rect style="fill:#ff0066" width="1" height="1" x="192" y="217"/>
  <rect style="fill:#ff0045" width="1" height="1" x="193" y="217"/>
  <rect style="fill:#ff008a" width="1" height="1" x="194" y="217"/>
  <rect style="fill:#ff0078" width="1" height="1" x="192" y="218"/>
  <rect style="fill:#ff004d" width="1" height="1" x="193" y="218"/>
  <rect style="fill:#ff0087" width="1" height="1" x="194" y="218"/>
  <rect style="fill:#ff0081" width="1" height="1" x="192" y="219"/>
  <rect style="fill:#ff005c" width="1" height="1" x="193" y="219"/>
  <rect style="fill:#ff0085" width="1" height="1" x="194" y="219"/>
  <rect style="fill:#ff007e" width="1" height="1" x="192" y="220"/>
  <rect style="fill:#ff005e" width="1" height="1" x="193" y="220"/>
  <rect style="fill:#ff0082" width="1" height="1" x="194" y="220"/>
  <rect style="fill:#ff007a" width="1" height="1" x="192" y="221"/>
  <rect style="fill:#ff005a" width="1" height="1" x="193" y="221"/>
  <rect style="fill:#ff0082" width="1" height="1" x="194" y="221"/>
  <rect style="fill:#ff007c" width="1" height="1" x="192" y="222"/>
  <rect style="fill:#ff0055" width="1" height="1" x="193" y="222"/>
  <rect style="fill:#ff008a" width="1" height="1" x="194" y="222"/>
  <rect style="fill:#ff008b" width="1" height="1" x="192" y="223"/>
  <rect style="fill:#ff0057" width="1" height="1" x="193" y="223"/>
  <rect style="fill:#ff0099" width="1" height="1" x="194" y="223"/>
  <rect style="fill:#ff0088" width="1" height="1" x="192" y="224"/>
  <rect style="fill:#ff005e" width="1" height="1" x="193" y="224"/>
  <rect style="fill:#ff008e" width="1" height="1" x="194" y="224"/>
  <rect style="fill:#ff0081" width="1" height="1" x="192" y="225"/>
  <rect style="fill:#ff0057" width="1" height="1" x="193" y="225"/>
  <rect style="fill:#ff007f" width="1" height="1" x="194" y="225"/>
  <rect style="fill:#ff0076" width="1" height="1" x="192" y="226"/>
  <rect style="fill:#ff004d" width="1" height="1" x="193" y="226"/>
  <rect style="fill:#ff007e" width="1" height="1" x="194" y="226"/>
  <rect style="fill:#ff0075" width="1" height="1" x="192" y="227"/>
  <rect style="fill:#ff004d" width="1" height="1" x="193" y="227"/>
  <rect style="fill:#ff0082" width="1" height="1" x="194" y="227"/>
  <rect style="fill:#ff0044" width="1" height="1" x="192" y="228"/>
  <rect style="fill:#ff001c" width="1" height="1" x="193" y="228"/>
  <rect style="fill:#ff006a" width="1" height="1" x="194" y="228"/>
  <rect style="fill:#ff0040" width="1" height="1" x="192" y="229"/>
  <rect style="fill:#ff0019" width="1" height="1" x="193" y="229"/>
  <rect style="fill:#ff0057" width="1" height="1" x="194" y="229"/>
  <rect style="fill:#ff004b" width="1" height="1" x="192" y="230"/>
  <rect style="fill:#ff001e" width="1" height="1" x="193" y="230"/>
  <rect style="fill:#ff0056" width="1" height="1" x="194" y="230"/>
  <rect style="fill:#ff004b" width="1" height="1" x="192" y="231"/>
  <rect style="fill:#ff0020" width="1" height="1" x="193" y="231"/>
  <rect style="fill:#ff005e" width="1" height="1" x="194" y="231"/>
  <rect style="fill:#ff005f" width="1" height="1" x="192" y="232"/>
  <rect style="fill:#ff0033" width="1" height="1" x="193" y="232"/>
  <rect style="fill:#ff0061" width="1" height="1" x="194" y="232"/>
  <rect style="fill:#ff005e" width="1" height="1" x="192" y="233"/>
  <rect style="fill:#ff0032" width="1" height="1" x="193" y="233"/>
  <rect style="fill:#ff005f" width="1" height="1" x="194" y="233"/>
  <rect style="fill:#ff005c" width="1" height="1" x="192" y="234"/>
  <rect style="fill:#ff002f" width="1" height="1" x="193" y="234"/>
  <rect style="fill:#ff005e" width="1" height="1" x="194" y="234"/>
  <rect style="fill:#ff005f" width="1" height="1" x="192" y="235"/>
  <rect style="fill:#ff002e" width="1" height="1" x="193" y="235"/>
  <rect style="fill:#ff005b" width="1" height="1" x="194" y="235"/>
  <rect style="fill:#ff0072" width="1" height="1" x="192" y="236"/>
  <rect style="fill:#ff0045" width="1" height="1" x="193" y="236"/>
  <rect style="fill:#ff0070" width="1" height="1" x="194" y="236"/>
  <rect style="fill:#ff0077" width="1" height="1" x="192" y="237"/>
  <rect style="fill:#ff004a" width="1" height="1" x="193" y="237"/>
  <rect style="fill:#ff0075" width="1" height="1" x="194" y="237"/>
  <rect style="fill:#ff0079" width="1" height="1" x="192" y="238"/>
  <rect style="fill:#ff0059" width="1" height="1" x="193" y="238"/>
  <rect style="fill:#ff0073" width="1" height="1" x="194" y="238"/>
  <path d="M 190.3379106636175,0 L 193.557104555052246347,239" style="stroke-width:0.2;stroke:#0f0;" id="qis-939" />
</svg>
