P1
# Created by GIMP version 2.10.32 PNM plug-in
3 3
001001010